<svg width="1536" height="320" viewBox="0 0 1536 320" fill="none" xmlns="http://www.w3.org/2000/svg">
<g style="mix-blend-mode:overlay">
<path fill-rule="evenodd" clip-rule="evenodd" d="M0 14.2382L32 8.41889C64 1.76823 128 -11.5331 192 20.8889C256 52.4795 320 129.793 384 173.854C448 218.746 512 231.216 576 212.095C640 192.975 704 142.263 768 123.143C832 104.022 896 116.492 960 116.492C1024 116.492 1088 104.022 1152 90.7208C1216 78.2508 1280 65.7809 1344 59.1302C1408 52.4795 1472 52.4795 1504 52.4795H1536V321H1504C1472 321 1408 321 1344 321C1280 321 1216 321 1152 321C1088 321 1024 321 960 321C896 321 832 321 768 321C704 321 640 321 576 321C512 321 448 321 384 321C320 321 256 321 192 321C128 321 64 321 32 321H0V14.2382Z" fill="#E8FAF5"/>
</g>
</svg>
