<svg width="499" height="566" viewBox="0 0 499 566" fill="none" xmlns="http://www.w3.org/2000/svg">
<path d="M62.6607 444.096H19.6251C18.3194 444.096 17.1769 442.982 17.1769 441.644V441.365C17.1769 440.028 18.3194 438.913 19.7339 438.913H59.6131C83.7692 438.913 107.925 438.913 132.027 438.913H169.023C170.328 438.913 171.471 440.028 171.471 441.365V441.644C171.471 442.982 170.383 444.096 169.023 444.096H116.52L130.993 471.295C141.276 490.691 151.558 510.031 161.895 529.427L178.924 561.419C179.523 562.533 179.033 563.983 177.891 564.651L177.673 564.763C176.531 565.376 175.062 565.042 174.518 563.983L110.809 444.096H68.3724L4.6636 563.983C4.11955 565.042 2.6506 565.432 1.50808 564.763L1.29046 564.651C0.147947 563.983 -0.341703 562.533 0.256758 561.419L17.2857 529.427C27.5683 510.031 37.851 490.691 48.188 471.295L62.6607 444.096ZM17.3401 422.255V389.849C17.3401 365.133 17.3401 340.475 17.3401 315.816V286.366C17.3401 281.749 20.9938 278.006 25.5009 278.006H114.291C118.798 278.006 122.451 281.749 122.451 286.366V422.351C122.451 426.968 118.798 430.711 114.291 430.711C114.288 430.711 114.285 430.711 114.282 430.711L25.4923 430.615C20.9886 430.611 17.3401 426.869 17.3401 422.255Z" fill="#D8DEED"/>
<path d="M435.99 444.096H479.025C480.331 444.096 481.474 442.982 481.474 441.644V441.365C481.474 440.028 480.331 438.913 478.916 438.913H439.037C414.881 438.913 390.725 438.913 366.624 438.913H329.628C328.322 438.913 327.18 440.028 327.18 441.365V441.644C327.18 442.982 328.268 444.096 329.628 444.096H382.13L367.657 471.295C357.375 490.691 347.092 510.031 336.755 529.427L319.726 561.419C319.128 562.533 319.617 563.983 320.76 564.651L320.977 564.763C322.12 565.376 323.589 565.042 324.133 563.983L387.842 444.096H430.278L493.987 563.983C494.531 565.042 496 565.432 497.142 564.763L497.36 564.651C498.502 563.983 498.992 562.533 498.394 561.419L481.365 529.427C471.082 510.031 460.799 490.691 450.462 471.295L435.99 444.096ZM481.31 422.255V389.849C481.31 365.133 481.31 340.475 481.31 315.816V286.366C481.31 281.749 477.657 278.006 473.149 278.006H384.36C379.853 278.006 376.199 281.749 376.199 286.366V422.351C376.199 426.968 379.853 430.711 384.36 430.711C384.363 430.711 384.365 430.711 384.368 430.711L473.158 430.615C477.662 430.611 481.31 426.869 481.31 422.255Z" fill="#D8DEED"/>
<path d="M259.936 30.6523H58.092C56.2891 30.6523 54.8276 32.1496 54.8276 33.9964V191.169C54.8276 193.016 56.2891 194.513 58.092 194.513H259.936C261.739 194.513 263.201 193.016 263.201 191.169V33.9964C263.201 32.1496 261.739 30.6523 259.936 30.6523Z" fill="#F2F6FB"/>
<path d="M196.991 68.1426H218.002C220.427 68.1426 221.307 68.4013 222.193 68.887C223.08 69.3728 223.776 70.0856 224.25 70.9939C224.724 71.9021 224.976 72.8031 224.976 75.2875V172.478C224.976 174.962 224.724 175.863 224.25 176.772C223.776 177.68 223.08 178.393 222.193 178.878C221.307 179.364 220.427 179.623 218.002 179.623H196.991C194.565 179.623 193.686 179.364 192.799 178.878C191.913 178.393 191.217 177.68 190.743 176.772C190.269 175.863 190.016 174.962 190.016 172.478V75.2875C190.016 72.8031 190.269 71.9021 190.743 70.9939C191.217 70.0856 191.913 69.3728 192.799 68.887C193.686 68.4013 194.565 68.1426 196.991 68.1426Z" fill="#E1E5F0"/>
<mask id="mask0_1907_29074" style="mask-type:luminance" maskUnits="userSpaceOnUse" x="190" y="68" width="35" height="112">
<path d="M196.991 68.1426H218.002C220.427 68.1426 221.307 68.4013 222.193 68.887C223.08 69.3728 223.776 70.0856 224.25 70.9939C224.724 71.9021 224.976 72.8031 224.976 75.2875V172.478C224.976 174.962 224.724 175.863 224.25 176.772C223.776 177.68 223.08 178.393 222.193 178.878C221.307 179.364 220.427 179.623 218.002 179.623H196.991C194.565 179.623 193.686 179.364 192.799 178.878C191.913 178.393 191.217 177.68 190.743 176.772C190.269 175.863 190.016 174.962 190.016 172.478V75.2875C190.016 72.8031 190.269 71.9021 190.743 70.9939C191.217 70.0856 191.913 69.3728 192.799 68.887C193.686 68.4013 194.565 68.1426 196.991 68.1426Z" fill="white"/>
</mask>
<g mask="url(#mask0_1907_29074)">
<path d="M191.575 131.277H223.418C223.96 131.277 224.156 131.335 224.354 131.444C224.553 131.552 224.708 131.712 224.814 131.915C224.92 132.117 224.976 132.319 224.976 132.874V179.623H190.016V132.874C190.016 132.319 190.073 132.117 190.178 131.915C190.284 131.712 190.44 131.552 190.638 131.444C190.836 131.335 191.033 131.277 191.575 131.277Z" fill="#D8DEED"/>
</g>
<path d="M148.713 68.1426H169.725C172.15 68.1426 173.029 68.4013 173.916 68.887C174.802 69.3728 175.498 70.0856 175.972 70.9939C176.447 71.9021 176.699 72.8031 176.699 75.2875V172.478C176.699 174.962 176.447 175.863 175.972 176.772C175.498 177.68 174.802 178.393 173.916 178.878C173.029 179.364 172.15 179.623 169.725 179.623H148.713C146.288 179.623 145.409 179.364 144.522 178.878C143.635 178.393 142.94 177.68 142.465 176.772C141.991 175.863 141.739 174.962 141.739 172.478V75.2875C141.739 72.8031 141.991 71.9021 142.465 70.9939C142.94 70.0856 143.635 69.3728 144.522 68.887C145.409 68.4013 146.288 68.1426 148.713 68.1426Z" fill="#E1E5F0"/>
<mask id="mask1_1907_29074" style="mask-type:luminance" maskUnits="userSpaceOnUse" x="141" y="68" width="36" height="112">
<path d="M148.714 68.1426H169.726C172.151 68.1426 173.03 68.4013 173.917 68.887C174.803 69.3728 175.499 70.0856 175.973 70.9939C176.448 71.9021 176.7 72.8031 176.7 75.2875V172.478C176.7 174.962 176.448 175.863 175.973 176.772C175.499 177.68 174.803 178.393 173.917 178.878C173.03 179.364 172.151 179.623 169.726 179.623H148.714C146.289 179.623 145.41 179.364 144.523 178.878C143.636 178.393 142.941 177.68 142.466 176.772C141.992 175.863 141.74 174.962 141.74 172.478V75.2875C141.74 72.8031 141.992 71.9021 142.466 70.9939C142.941 70.0856 143.636 69.3728 144.523 68.887C145.41 68.4013 146.289 68.1426 148.714 68.1426Z" fill="white"/>
</mask>
<g mask="url(#mask1_1907_29074)">
<path d="M143.298 92.6016H175.142C175.683 92.6016 175.88 92.6594 176.078 92.7679C176.276 92.8765 176.432 93.0358 176.538 93.2387C176.644 93.4417 176.7 93.643 176.7 94.1982V179.624H141.74V94.1982C141.74 93.643 141.796 93.4417 141.902 93.2387C142.008 93.0358 142.164 92.8765 142.362 92.7679C142.56 92.6594 142.756 92.6016 143.298 92.6016Z" fill="#D8DEED"/>
</g>
<path d="M100.434 68.1426H121.445C123.871 68.1426 124.75 68.4013 125.637 68.887C126.523 69.3728 127.219 70.0856 127.693 70.9939C128.167 71.9021 128.42 72.8031 128.42 75.2875V172.478C128.42 174.962 128.167 175.863 127.693 176.772C127.219 177.68 126.523 178.393 125.637 178.878C124.75 179.364 123.871 179.623 121.445 179.623H100.434C98.0088 179.623 97.1293 179.364 96.2427 178.878C95.3561 178.393 94.6603 177.68 94.1861 176.772C93.712 175.863 93.4595 174.962 93.4595 172.478V75.2875C93.4595 72.8031 93.712 71.9021 94.1861 70.9939C94.6603 70.0856 95.3561 69.3728 96.2427 68.887C97.1293 68.4013 98.0088 68.1426 100.434 68.1426Z" fill="#E1E5F0"/>
<mask id="mask2_1907_29074" style="mask-type:luminance" maskUnits="userSpaceOnUse" x="93" y="68" width="36" height="112">
<path d="M100.433 68.1426H121.444C123.87 68.1426 124.749 68.4013 125.636 68.887C126.522 69.3728 127.218 70.0856 127.692 70.9939C128.166 71.9021 128.419 72.8031 128.419 75.2875V172.478C128.419 174.962 128.166 175.863 127.692 176.772C127.218 177.68 126.522 178.393 125.636 178.878C124.749 179.364 123.87 179.623 121.444 179.623H100.433C98.0078 179.623 97.1284 179.364 96.2418 178.878C95.3551 178.393 94.6593 177.68 94.1852 176.772C93.711 175.863 93.4585 174.962 93.4585 172.478V75.2875C93.4585 72.8031 93.711 71.9021 94.1852 70.9939C94.6593 70.0856 95.3551 69.3728 96.2418 68.887C97.1284 68.4013 98.0078 68.1426 100.433 68.1426Z" fill="white"/>
</mask>
<g mask="url(#mask2_1907_29074)">
<path d="M95.017 111.939H126.86C127.402 111.939 127.599 111.997 127.797 112.106C127.995 112.214 128.15 112.374 128.256 112.577C128.362 112.78 128.419 112.981 128.419 113.536V179.624H93.4585V113.536C93.4585 112.981 93.5149 112.78 93.6209 112.577C93.7268 112.374 93.8823 112.214 94.0805 112.106C94.2786 111.997 94.4751 111.939 95.017 111.939Z" fill="#D8DEED"/>
</g>
<path d="M54.8262 39.9215C54.8262 34.8034 58.8719 30.6543 63.8717 30.6543H254.154C259.149 30.6543 263.199 34.8022 263.199 39.9215V49.1887H54.8262V39.9215Z" fill="#E1E5F0"/>
<path d="M449.809 0H251.229C245.219 0 240.348 4.99069 240.348 11.147V158.288C240.348 164.444 245.219 169.435 251.229 169.435H449.809C455.818 169.435 460.69 164.444 460.69 158.288V11.147C460.69 4.99069 455.818 0 449.809 0Z" fill="#F2F6FB"/>
<path d="M353.005 48.0528L387.938 59.0486L424.832 79.9777L427.282 75.6107L389.93 54.4216L352.385 42.6035L314.523 64.976L276.752 78.0562L278.376 82.7969L316.619 69.5533L353.005 48.0528Z" fill="#D8DEED"/>
<path d="M276.093 87.0482C272.673 87.0482 269.9 84.2713 269.9 80.8458C269.9 77.4203 272.673 74.6434 276.093 74.6434C279.513 74.6434 282.286 77.4203 282.286 80.8458C282.286 84.2713 279.513 87.0482 276.093 87.0482ZM313.248 72.8713C309.828 72.8713 307.056 70.0944 307.056 66.6689C307.056 63.2434 309.828 60.4665 313.248 60.4665C316.668 60.4665 319.441 63.2434 319.441 66.6689C319.441 70.0944 316.668 72.8713 313.248 72.8713ZM350.404 51.606C346.984 51.606 344.211 48.829 344.211 45.4036C344.211 41.9781 346.984 39.2012 350.404 39.2012C353.824 39.2012 356.596 41.9781 356.596 45.4036C356.596 48.829 353.824 51.606 350.404 51.606ZM387.559 62.2386C384.139 62.2386 381.367 59.4617 381.367 56.0362C381.367 52.6107 384.139 49.8338 387.559 49.8338C390.979 49.8338 393.752 52.6107 393.752 56.0362C393.752 59.4617 390.979 62.2386 387.559 62.2386ZM424.715 85.2761C421.295 85.2761 418.522 82.4992 418.522 79.0737C418.522 75.6482 421.295 72.8713 424.715 72.8713C428.135 72.8713 430.907 75.6482 430.907 79.0737C430.907 82.4992 428.135 85.2761 424.715 85.2761Z" fill="#FFCB3D"/>
<path d="M367.817 112.258V141.595C367.817 142.776 366.882 143.737 365.728 143.737H364.601C363.448 143.737 362.512 142.778 362.512 141.595V112.258C362.512 111.077 363.447 110.117 364.601 110.117H365.728C366.881 110.117 367.817 111.075 367.817 112.258ZM357.207 117.565V141.597C357.207 142.778 356.271 143.737 355.118 143.737H353.991C352.838 143.737 351.902 142.779 351.902 141.597V117.565C351.902 116.383 352.837 115.425 353.991 115.425H355.118C356.27 115.425 357.207 116.383 357.207 117.565ZM346.596 101.641V141.596C346.596 142.782 345.661 143.737 344.507 143.737H343.38C342.228 143.737 341.291 142.778 341.291 141.596V101.641C341.291 100.454 342.227 99.4996 343.38 99.4996H344.507C345.66 99.4996 346.596 100.458 346.596 101.641ZM335.986 112.258V141.595C335.986 142.776 335.051 143.737 333.897 143.737H332.77C331.617 143.737 330.681 142.778 330.681 141.595V112.258C330.681 111.077 331.616 110.117 332.77 110.117H333.897C335.05 110.117 335.986 111.075 335.986 112.258ZM325.376 96.336V141.592C325.376 142.78 324.441 143.737 323.287 143.737H322.16C321.007 143.737 320.071 142.776 320.071 141.592V96.336C320.071 95.1477 321.006 94.1912 322.16 94.1912H323.287C324.44 94.1912 325.376 95.1515 325.376 96.336ZM314.766 101.641V141.596C314.766 142.782 313.83 143.737 312.677 143.737H311.55C310.397 143.737 309.461 142.778 309.461 141.596V101.641C309.461 100.454 310.396 99.4996 311.55 99.4996H312.677C313.829 99.4996 314.766 100.458 314.766 101.641ZM304.155 92.799V141.59C304.155 142.781 303.22 143.737 302.066 143.737H300.939C299.787 143.737 298.85 142.776 298.85 141.59V92.799C298.85 91.6075 299.786 90.6522 300.939 90.6522H302.066C303.219 90.6522 304.155 91.6134 304.155 92.799ZM293.545 89.2553V141.595C293.545 142.778 292.61 143.737 291.456 143.737H290.329C289.176 143.737 288.24 142.778 288.24 141.595V89.2553C288.24 88.0723 289.175 87.1133 290.329 87.1133H291.456C292.609 87.1133 293.545 88.0723 293.545 89.2553ZM282.935 101.641V141.596C282.935 142.782 282 143.737 280.846 143.737H279.719C278.566 143.737 277.63 142.778 277.63 141.596V101.641C277.63 100.454 278.565 99.4996 279.719 99.4996H280.846C281.999 99.4996 282.935 100.458 282.935 101.641ZM431.478 112.258V141.595C431.478 142.776 430.543 143.737 429.389 143.737H428.262C427.109 143.737 426.173 142.778 426.173 141.595V112.258C426.173 111.077 427.109 110.117 428.262 110.117H429.389C430.542 110.117 431.478 111.075 431.478 112.258ZM420.868 96.336V141.592C420.868 142.78 419.933 143.737 418.779 143.737H417.652C416.499 143.737 415.563 142.776 415.563 141.592V96.336C415.563 95.1477 416.498 94.1912 417.652 94.1912H418.779C419.932 94.1912 420.868 95.1515 420.868 96.336ZM410.258 101.641V141.596C410.258 142.782 409.322 143.737 408.169 143.737H407.042C405.889 143.737 404.953 142.778 404.953 141.596V101.641C404.953 100.454 405.888 99.4996 407.042 99.4996H408.169C409.322 99.4996 410.258 100.458 410.258 101.641ZM399.648 92.799V141.59C399.648 142.781 398.712 143.737 397.558 143.737H396.432C395.279 143.737 394.342 142.776 394.342 141.59V92.799C394.342 91.6075 395.278 90.6522 396.432 90.6522H397.558C398.711 90.6522 399.648 91.6134 399.648 92.799ZM389.037 89.2553V141.595C389.037 142.778 388.102 143.737 386.948 143.737H385.821C384.668 143.737 383.732 142.778 383.732 141.595V89.2553C383.732 88.0723 384.668 87.1133 385.821 87.1133H386.948C388.101 87.1133 389.037 88.0723 389.037 89.2553ZM378.427 101.641V141.596C378.427 142.782 377.492 143.737 376.338 143.737H375.211C374.058 143.737 373.122 142.778 373.122 141.596V101.641C373.122 100.454 374.057 99.4996 375.211 99.4996H376.338C377.491 99.4996 378.427 100.458 378.427 101.641Z" fill="#D8DEED"/>
<path d="M240.349 9.58242C240.349 4.2902 244.541 0 249.702 0H451.337C456.503 0 460.691 4.28903 460.691 9.58242V19.1648H240.349V9.58242Z" fill="#E1E5F0"/>
<path d="M253.169 13.9378C255.449 13.9378 257.298 12.0853 257.298 9.79997C257.298 7.51469 255.449 5.66211 253.169 5.66211C250.889 5.66211 249.041 7.51469 249.041 9.79997C249.041 12.0853 250.889 13.9378 253.169 13.9378Z" fill="#FF5645"/>
<path d="M266.641 13.9378C268.922 13.9378 270.77 12.0853 270.77 9.79997C270.77 7.51469 268.922 5.66211 266.641 5.66211C264.361 5.66211 262.513 7.51469 262.513 9.79997C262.513 12.0853 264.361 13.9378 266.641 13.9378Z" fill="#FFCB3D"/>
<path d="M280.549 13.9378C282.829 13.9378 284.677 12.0853 284.677 9.79997C284.677 7.51469 282.829 5.66211 280.549 5.66211C278.268 5.66211 276.42 7.51469 276.42 9.79997C276.42 12.0853 278.268 13.9378 280.549 13.9378Z" fill="#3ABF7C"/>
<path d="M362.584 560.088L416.623 518.844C417.711 518.008 419.289 518.231 420.105 519.345C420.921 520.46 420.703 522.076 419.615 522.912L364.992 564.602C363.904 565.438 362.326 565.215 361.51 564.101C360.694 562.986 360.912 561.37 362 560.534L362.584 560.088H363.36C364.72 560.088 365.862 561.233 365.862 562.596C365.808 564.013 364.72 565.104 363.36 565.104H333.165C331.805 565.104 330.662 563.959 330.662 562.596C330.662 561.233 331.805 560.088 333.165 560.088H362.584ZM458.461 565.218H402.641C401.335 565.218 400.192 564.254 400.192 563.096V562.324C400.192 561.167 401.28 560.202 402.641 560.202H458.406C459.712 560.202 460.854 561.167 460.854 562.324V563.096C460.963 564.254 459.821 565.218 458.461 565.218Z" fill="#FF5645"/>
<path d="M407.523 532.14C408.333 532.484 421.658 531.97 447.498 530.599L456.791 560.201H402.64C402.624 560.201 402.608 560.201 402.592 560.201C406.124 542.185 407.781 532.821 407.563 532.109L407.523 532.14ZM416.417 519L362.583 560.087H333.164C332.833 560.087 332.514 560.155 332.222 560.277C332.174 560.039 332.141 559.802 332.13 559.581C332.185 559.191 332.185 558.745 332.294 558.299C332.566 557.296 333.001 556.348 333.491 555.512C335.068 552.948 337.897 551.165 337.897 551.165C341.162 548.991 344.154 547.542 347.69 545.982C349.54 545.146 352.152 544.031 355.198 542.805C356.178 539.572 357.157 536.339 358.136 533.051C359.986 526.753 361.836 520.511 363.631 514.268L396.383 489.912L416.417 519Z" fill="#474961"/>
<path d="M406.921 505.314C403.284 507.589 396.967 509.283 387.053 512.713C368.839 519.03 361.558 523.172 356.195 518.942C354.4 517.589 353.553 515.982 353.22 515.216C344.852 495.28 312.575 439.092 295.736 397.459C295.713 397.352 295.648 397.31 295.625 397.203C290.222 383.783 296.38 368.782 309.357 364.229C313.648 362.719 317.949 361.262 322.24 359.752C326.127 358.414 330.172 358.155 334.05 358.839L333.837 358.473L463.422 354.684C465.653 355.812 467.098 360.416 469.639 367.645C472.181 374.875 472.987 387.474 472.769 388.909C472.769 400.137 470.81 410.442 467.546 418.389C465.261 423.875 462.432 428.233 459.168 431.001C458.606 431.485 458.035 431.919 457.454 432.302C457.454 433.074 457.453 433.855 457.453 434.643C457.453 463.796 456.474 505.451 456.148 519.3C456.093 521.132 456.311 526.09 453.046 529.215C452.122 530.131 451.197 530.508 449.456 531.317C448.096 531.963 442.002 533.903 429.815 534.981C429.054 535.035 428.238 535.089 427.422 535.035C415.202 534.563 411.932 533.735 407.309 532.303L419.615 522.911C420.703 522.075 420.92 520.459 420.104 519.344C419.288 518.23 417.711 518.007 416.622 518.843L416.371 519.035L406.921 505.314ZM394.793 460.117C394.441 455.907 394.128 451.227 393.853 446.013L392.906 430.142L378.038 424.524C383.657 436.22 389.267 448.121 394.793 460.117Z" fill="#A339FF"/>
<path opacity="0.176986" d="M457.454 432.095C457.461 421.936 457.515 413.237 457.616 407.497C457.725 402.593 458.541 375.649 447.986 370.045C447.062 369.56 446.137 369.183 444.287 368.482C442.818 367.943 435.201 365.141 425.408 365.572C419.043 365.842 409.467 366.273 401.579 373.009C390.697 382.331 390.969 397.042 391.078 399.414L392.898 429.918L377.951 424.247C369.409 406.47 360.849 389.167 352.539 372.721C348.432 364.612 340.784 359.464 332.581 358.531L463.422 354.477C465.652 355.604 467.097 360.209 469.639 367.438C472.181 374.668 472.986 387.267 472.769 388.702C472.769 399.93 470.81 410.235 467.546 418.182C465.261 423.668 462.431 428.025 459.167 430.794C458.606 431.278 458.035 431.712 457.454 432.095Z" fill="#444444"/>
<path d="M407.919 505.75C410.345 504.048 412.158 502.098 412.64 500.164C413.346 497.469 412.864 494.938 411.774 492.444C405.814 478.799 401.687 469.749 399.382 465.279C399.172 464.871 398.678 464.715 398.279 464.93C397.881 465.146 397.728 465.652 397.939 466.06C400.221 470.487 404.339 479.515 410.284 493.126C411.235 495.303 411.651 497.488 411.061 499.74C410.703 501.178 409.12 502.881 406.997 504.371C406.625 504.632 406.53 505.152 406.785 505.533C407.039 505.914 407.547 506.011 407.919 505.75Z" fill="#482D1F"/>
<path d="M464.963 319.005C466.234 330.762 466.265 340.569 465.311 347.037C465.311 347.206 465.26 347.431 465.21 347.599C464.957 349.341 464.602 350.802 464.147 351.982C464.096 352.094 464.046 352.206 463.995 352.319C461.414 356.589 441.018 355.072 436.21 355.24C428.314 355.521 378.843 356.951 377.679 356.164C377.122 355.771 376.464 351.42 375.907 350.802C374.014 348.805 374.823 336.586 376.617 321.943L349.251 319.564C351.162 304.786 352.444 296.431 353.097 294.499C355.001 288.981 360.476 278.526 361.727 273.622C365.209 259.744 369.507 254.56 370.976 253.055C372.663 251.272 374.295 250.046 375.383 249.265C382.728 244.082 390.508 243.302 394.479 243.19C394.535 243.162 398.602 242.875 402.608 242.599C405.825 241.56 409.964 241.24 416.218 241.24C420.796 241.24 424.704 241.522 427.927 241.914C427.016 240.774 426.835 240.478 428.972 240.571L448.286 241.407C448.395 241.407 448.504 241.407 448.613 241.462C452.584 241.574 460.364 242.354 467.709 247.538C468.797 248.318 470.429 249.544 472.116 251.328C473.585 252.832 477.883 258.016 481.365 271.894C482.616 276.799 488.027 285.821 489.932 291.338C491.201 295.017 491.918 302.915 492.083 315.033C484.016 316.701 474.976 318.025 464.963 319.005V319.005Z" fill="#FF5645"/>
<mask id="mask3_1907_29074" style="mask-type:luminance" maskUnits="userSpaceOnUse" x="349" y="240" width="144" height="117">
<path d="M464.963 319.005C466.234 330.762 466.265 340.569 465.311 347.037C465.311 347.206 465.26 347.431 465.21 347.599C464.957 349.341 464.602 350.802 464.147 351.982C464.096 352.094 464.046 352.206 463.995 352.319C461.414 356.589 441.018 355.072 436.21 355.24C428.314 355.521 378.843 356.951 377.679 356.164C377.122 355.771 376.464 351.42 375.907 350.802C374.014 348.805 374.823 336.586 376.617 321.943L349.251 319.564C351.162 304.786 352.444 296.431 353.097 294.499C355.001 288.981 360.476 278.526 361.727 273.622C365.209 259.744 369.507 254.56 370.976 253.055C372.663 251.272 374.295 250.046 375.383 249.265C382.728 244.082 390.508 243.302 394.479 243.19C394.535 243.162 398.602 242.875 402.608 242.599C405.825 241.56 409.964 241.24 416.218 241.24C420.796 241.24 424.704 241.522 427.927 241.914C427.016 240.774 426.835 240.478 428.972 240.571L448.286 241.407C448.395 241.407 448.504 241.407 448.613 241.462C452.584 241.574 460.364 242.354 467.709 247.538C468.797 248.318 470.429 249.544 472.116 251.328C473.585 252.832 477.883 258.016 481.365 271.894C482.616 276.799 488.027 285.821 489.932 291.338C491.201 295.017 491.918 302.915 492.083 315.033C484.016 316.701 474.976 318.025 464.963 319.005V319.005Z" fill="white"/>
</mask>
<g mask="url(#mask3_1907_29074)">
<path d="M405.62 241.983C401.198 243.285 398.426 247.823 397.303 255.598C396.18 263.373 394.822 286.225 393.228 324.154L418.144 332.062L444.192 324.936C442.582 284.454 441.248 261.179 440.19 255.111C438.603 246.008 437.097 244.208 431.906 241.983C426.715 239.759 421.783 240.07 416.022 240.607C412.182 240.966 408.714 241.424 405.62 241.983Z" fill="#FFCB3D"/>
</g>
<path d="M428.591 225.197L429.189 243.19C429.189 243.58 429.026 243.97 428.7 244.138C427.285 245.029 425.272 246.033 422.769 246.59C418.254 247.649 414.391 246.869 412.215 246.2C411.78 246.088 411.453 245.642 411.453 245.196L411.244 235.494C408.419 236.57 408.576 236.462 408.298 236.558C404.87 237.449 401.932 237.338 401.388 237.226C399.43 237.059 397.362 235.387 395.512 232.545C393.01 228.755 390.779 222.847 389.582 215.768C389.365 214.765 389.31 213.762 389.256 212.759L389.038 202.782C388.984 200.553 389.528 198.379 390.561 196.317C390.997 195.425 391.432 194.701 391.976 194.087C391.994 194.064 392.011 194.041 392.029 194.018C392.048 193.985 392.067 193.953 392.085 193.92C396.274 187.957 405.033 187.176 409.059 187.622C409.549 187.678 411.29 187.901 413.793 188.068C415.153 188.18 416.241 188.18 416.894 188.235C425 188.57 428.21 187.566 432.29 189.796C433.052 190.186 434.793 191.189 436.316 193.14C440.614 198.658 439.361 205.792 439.089 207.91C438.11 214.264 434.739 218.165 433.651 219.781C432.51 221.505 430.369 223.597 428.591 225.197ZM353.956 346.957C349.762 341.001 349.68 330.537 350.786 319.619C351.996 319.619 360.596 320.25 376.586 321.514C379.867 321.793 385.422 322.47 393.251 323.547L422.054 330.312L455.902 321.832L455.739 320.254C460.422 319.636 463.835 319.171 465.977 318.857C471.732 318.016 480.165 316.749 491.276 315.058C492.689 332.192 490.265 351.188 474.237 356.611H406.533L348.028 358.376C347.127 358.403 346.375 357.677 346.348 356.754C346.338 356.388 346.445 356.028 346.653 355.73C349.107 352.225 351.541 349.301 353.956 346.957Z" fill="#DB9E75"/>
<path opacity="0.2" d="M353.999 347.017C349.763 341.071 349.677 330.574 350.786 319.619C351.996 319.619 358.199 320.053 369.395 320.92C373.28 321.075 381.232 321.951 393.252 323.547C404.663 326.227 414.344 328.501 422.296 330.369L391.44 338.1C390.617 337.811 389.77 337.549 388.9 337.317C374.537 333.506 363.111 340.396 359.085 342.961C357.224 344.147 355.531 345.54 353.999 347.017Z" fill="#8C2A00"/>
<path d="M438.483 210.582C436.076 209.963 433.426 209.218 430.688 208.407C430.494 207.638 430.168 206.892 429.681 206.197C427.94 203.689 424.457 202.281 421.845 203.173C420.58 203.605 419.678 204.533 419.383 204.854C412.767 202.668 406.92 200.557 404.184 199.392C400.992 198.033 398.87 196.737 397.816 195.502C394.015 197.8 391.096 199.331 389.058 200.096C389.293 198.719 389.75 197.373 390.403 196.071C390.838 195.179 391.273 194.454 391.817 193.841C391.835 193.818 391.853 193.795 391.87 193.772C391.889 193.739 391.908 193.707 391.926 193.674C396.115 187.71 404.874 186.93 408.9 187.376C409.39 187.432 411.131 187.655 413.634 187.822C414.994 187.933 416.082 187.933 416.735 187.989C424.841 188.324 428.051 187.32 432.132 189.55C432.893 189.94 434.634 190.943 436.158 192.894C440.456 198.412 439.422 205.546 439.15 207.664C438.99 208.701 438.76 209.674 438.483 210.582ZM390.943 209.639C390.399 209.527 390.236 208.802 390.617 208.412C391.106 207.966 391.977 207.521 393.065 207.521C395.295 207.521 397.689 209.025 395.187 209.694C393.718 210.14 391.977 209.861 390.943 209.639ZM402.15 210.029C401.606 209.917 401.443 209.193 401.878 208.802C402.368 208.357 403.239 207.911 404.381 207.911C406.612 207.911 409.006 209.471 406.503 210.084C404.925 210.53 403.239 210.252 402.15 210.029Z" fill="#482D1F"/>
<path d="M411.126 235.368L417.304 232.08L411.507 241.24L411.126 235.368Z" fill="#482D1F"/>
<path d="M395.185 213.54C395.131 214.488 394.968 216.049 394.424 216.606C393.499 217.442 392.302 214.655 393.009 212.927C393.281 212.203 393.662 212.091 394.097 212.147C394.75 212.259 395.185 212.872 395.185 213.54ZM404.924 213.429C404.978 214.377 404.978 215.937 404.434 216.606C403.618 217.553 402.095 214.878 402.639 213.095C402.857 212.37 403.237 212.203 403.673 212.203C404.326 212.203 404.87 212.76 404.924 213.429Z" fill="#482D1F"/>
<path d="M400.464 224.91C400.844 224.798 401.769 224.52 401.933 223.907C401.933 223.795 401.987 223.628 401.933 223.516C401.715 223.126 401.062 223.349 400.083 223.405C398.342 223.516 396.927 223.349 396.927 223.349C396.927 223.349 397.308 224.464 397.58 224.798C398.179 225.634 399.92 225.077 400.464 224.91Z" fill="#482D1F"/>
<path d="M395.953 219.537C395.85 220.165 396.326 220.782 396.946 220.888C397.082 220.901 397.082 220.901 397.17 220.908C398.088 220.981 398.662 221.007 399.647 221.007C399.948 221.007 400.191 220.758 400.191 220.45C400.191 220.142 399.948 219.893 399.647 219.893C398.693 219.893 398.146 219.867 397.254 219.797L397.077 219.783C397.076 219.78 397.027 219.716 397.028 219.706L397.847 213.728L397.852 213.65V210.362C397.852 210.054 397.608 209.805 397.308 209.805C397.007 209.805 396.764 210.054 396.764 210.362V213.612L395.953 219.537Z" fill="#482D1F"/>
<path d="M430.665 208.536C430.914 210.169 430.627 211.947 429.903 213.377C429.024 215.179 427.786 216.161 426.187 216.917C425.914 217.046 425.795 217.377 425.921 217.657C426.047 217.936 426.37 218.058 426.643 217.929C427.346 217.597 427.904 217.276 428.55 216.763C429.502 216.008 430.298 215.06 430.873 213.883C431.699 212.25 432.025 210.232 431.74 208.364C431.694 208.06 431.415 207.852 431.118 207.899C430.822 207.947 430.619 208.232 430.665 208.536Z" fill="#482D1F"/>
<path d="M380.971 321.471C382.03 301.028 382.5 291.934 383.085 280.534C383.142 279.421 384.773 279.509 384.715 280.622L382.601 321.56C382.544 322.673 380.914 322.584 380.971 321.471ZM456.799 319.737C457.116 320.793 455.577 321.293 455.243 320.242L447.68 296.499C447.35 295.46 448.85 294.924 449.221 295.948C450.282 298.878 455.239 314.545 456.799 319.737Z" fill="#482D1F"/>
<path d="M52.5957 565.153C51.1812 565.153 50.0931 564.188 50.1475 563.031V562.259C50.1475 561.101 51.29 560.137 52.5957 560.137H108.361C109.721 560.137 110.81 561.101 110.81 562.259V563.031C110.81 564.188 109.667 565.153 108.361 565.153H52.5957ZM125.281 560.137H211.786C213.138 560.137 214.234 561.26 214.234 562.645C214.234 564.03 213.138 565.153 211.786 565.153H125.281C123.929 565.153 122.833 564.03 122.833 562.645C122.833 561.26 123.929 560.137 125.281 560.137Z" fill="#DE3190"/>
<path d="M122.117 428.904L117.469 431.429L117.401 433.624C117.27 439.259 117.061 444.212 116.777 448.579C116.57 452.014 113.729 490.94 112.7 505.224C112.486 508.463 110.243 511.284 107.065 512.277C102.274 513.816 99.2015 514.707 86.6568 515.589C85.8429 515.666 85.0256 515.646 84.2627 515.624C72.0494 515.074 65.8986 513.527 64.5189 512.988C62.7536 512.316 61.8173 512.006 60.8642 511.207C57.5034 508.486 57.5648 503.979 57.4527 502.318C56.7875 491.362 54.959 461.213 53.8939 436.131C52.9175 435.774 51.9986 435.265 51.2055 434.538C47.9473 431.53 43.4297 428.059 40.957 422.146C33.9601 405.413 33.213 386.735 38.7157 366.112C43.0238 356.569 45.92 351.389 47.4043 350.572L161.353 358.546C162.403 358.522 163.454 358.499 164.508 358.475C178.273 358.222 189.426 369.227 189.099 382.666C189.099 382.768 189.099 382.819 189.099 382.92C188.229 424.608 178.055 483.995 177.348 504.078C177.293 504.839 177.076 506.513 175.933 508.288C172.397 513.714 164.127 512.497 144.813 512.954C128.383 513.359 121.745 514.576 118.372 510.113C116.522 507.679 116.577 504.89 116.631 503.622C117.954 478.603 119.869 453.351 122.117 428.904Z" fill="#3ABF7C"/>
<path opacity="0.176986" d="M122.312 428.885L117.669 431.407L118.912 391.229C118.89 389.026 118.7 375.716 107.586 367.636C99.4902 361.8 89.9071 361.745 83.5371 361.724C79.9316 361.707 67.0696 361.471 61.9923 367.636C53.2684 378.229 52.5023 398.091 52.6688 400.901C52.9727 406.521 53.3308 415.272 53.6838 425.444C53.802 428.851 53.943 432.445 54.1005 436.148C53.1061 435.791 52.1699 435.277 51.3637 434.538C48.1055 431.53 43.5879 428.059 41.1152 422.146C34.1183 405.413 33.3712 386.735 38.8739 366.112C43.182 356.569 46.0782 351.389 47.5625 350.572L160.483 358.474C157.342 358.544 154.211 358.614 151.054 358.684C138.813 358.988 128.639 368.066 127.333 379.933C125.559 395.646 123.857 412.076 122.312 428.885Z" fill="#444444"/>
<path d="M109.447 560.384C109.104 560.224 108.711 560.133 108.293 560.133H53.1948L66.0179 525.916L104.182 528.005L109.447 560.384ZM124.28 560.321L123.993 524.467L165.145 525.08L174.829 532.548C177.059 534.889 179.453 536.951 182.065 538.791C188.376 543.194 191.695 543.138 201.324 548.043C203.99 549.325 206.438 550.774 208.887 552.39C210.084 553.561 212.151 555.79 212.804 558.465C212.913 558.855 212.913 559.301 212.967 559.747C212.967 560.056 212.956 560.29 212.936 560.465C212.577 560.254 212.161 560.133 211.718 560.133H125.213C124.883 560.133 124.568 560.2 124.28 560.321Z" fill="#474961"/>
<path d="M125.214 296.838C124.303 315.821 122.248 341.926 120.386 346.994C117.565 354.674 63.4356 349.206 56.2281 347.527C51.7222 346.482 47.5204 334.041 46.743 329.874C46.0834 326.52 42.423 322.775 50.407 292.966C46.9105 292.037 44.0457 291.254 42.4914 290.847C36.1931 289.199 38.9653 281.662 40.0817 276.483C43.2787 261.702 47.2876 256.29 48.6578 254.661C50.2309 252.799 51.7533 251.46 52.7682 250.646C59.6189 245.176 66.8756 244.361 70.58 244.303C70.6815 244.244 70.783 244.244 70.8845 244.244L88.8993 244.012C88.8385 244.51 88.7737 245.043 88.7052 245.605C89.4576 245.634 90.1971 245.669 90.9169 245.708C90.9417 245.146 90.965 244.615 90.9867 244.119L108.69 247.543C108.79 247.561 108.89 247.579 108.98 247.652C112.619 248.366 119.633 250.425 125.492 256.803C126.359 257.752 127.641 259.286 128.888 261.322C129.973 263.102 133.042 268.92 133.791 283.431C134.05 288.514 135.574 296.122 129.103 296.557C128.198 296.617 126.859 296.717 125.214 296.838Z" fill="#DE3190"/>
<path opacity="0.176986" d="M125.286 296.833C125.888 284.114 125.237 274.9 124.686 271.234C124.295 268.612 123.658 266.185 123.658 266.185C123.358 264.462 122.721 262.036 121.168 259.476C116.347 251.275 106.702 248.67 100.203 246.837C98.7802 246.447 95.1967 246.047 90.9126 245.815C90.9391 245.213 90.964 244.647 90.9871 244.119L108.69 247.543C108.79 247.561 108.89 247.579 108.981 247.652C112.62 248.366 119.634 250.426 125.492 256.804C126.36 257.753 127.641 259.286 128.888 261.322C129.973 263.103 133.043 268.921 133.791 283.431C134.05 288.515 135.574 296.123 129.104 296.557C128.212 296.617 126.898 296.715 125.286 296.833Z" fill="#444444"/>
<path d="M151.414 278.383C155.524 274.294 162.949 268.087 173.69 259.762C176.986 260.156 176.747 262.832 172.971 267.791L151.414 278.383ZM80.0574 299.463C79.8777 299.886 79.3969 300.08 78.9836 299.896C78.5702 299.712 78.3809 299.219 78.5606 298.796C79.6138 296.314 80.0373 294.928 80.8532 291.306C80.9546 290.856 81.3927 290.575 81.8319 290.679C82.2711 290.783 82.5449 291.232 82.4436 291.682C81.6067 295.397 81.1542 296.878 80.0574 299.463Z" fill="#482D1F"/>
<path d="M68.5499 513.962C71.7817 514.584 76.9746 515.29 84.4211 515.625C85.184 515.647 86.0013 515.668 86.8152 515.59C96.3754 514.918 100.434 514.241 103.945 513.275L104.182 528.005L66.0173 525.916L68.5499 513.962ZM123.905 513.057C128.114 513.792 134.587 513.211 144.972 512.955C150.546 512.823 155.2 512.831 159.087 512.778L165.123 525.08L123.992 524.467L123.905 513.057ZM121.612 337.95L125.181 296.834C125.955 296.772 126.549 296.725 126.962 296.693C127.795 296.63 128.652 296.597 129.642 296.394C130.914 296.134 131.773 295.809 132.218 295.421L133.8 306.474L149.215 280.666C149.974 279.396 151.05 278.356 152.332 277.655L179.686 262.691C183.878 258.662 186.894 256.33 188.734 255.695C190.575 255.059 192.494 255.686 194.491 257.577L170.645 283.176C167.65 292.054 164.353 300.916 160.754 309.76C157.156 318.599 151.563 331.561 143.975 348.645C154.337 354.339 160.576 358.848 160.576 358.848C160.576 358.848 83.4386 357.51 52.8407 355.59C25.6187 353.882 38.745 302.099 41.9729 290.693C42.1386 290.749 42.3114 290.801 42.4917 290.848C48.1267 292.323 70.987 298.829 78.719 299.273L71.2966 325.827C89.5319 326.819 107.021 331.987 121.612 337.95ZM100.801 245.491C102.151 245.874 103.554 246.33 105.011 246.86C103.8 249.893 102.115 251.67 99.9567 252.192C96.7194 252.974 88.9714 252.974 83.8773 250.731C80.4813 249.236 77.9247 247.057 76.2076 244.193C78.18 244.155 80.0327 244.123 81.7654 244.097V223.417C80.3963 221.773 79.1977 220.205 78.4926 218.75C77.3036 216.339 77.4702 210.256 77.9871 207.356C78.1585 206.166 86.5312 197.715 91.3783 206.005L90.9232 191.723C90.9016 190.83 91.5445 190.045 92.4706 190.018C94.3723 189.903 96.2645 189.678 98.2861 189.049C98.5029 189.03 98.715 188.955 98.9318 188.935C100.76 188.603 111.07 187.176 117.054 194.584C117.599 195.207 118.094 195.89 118.549 196.744C119.538 198.726 120.107 200.912 120.134 203.148L120.219 213.099C120.196 214.108 120.119 215.122 119.983 216.085C119.009 223.222 116.95 229.169 114.548 233.021C112.775 235.922 110.74 237.671 108.848 237.896C108.31 238 105.379 238.207 101.874 237.458C101.646 237.402 101.706 237.451 100.277 236.961L100.801 245.491Z" fill="#DB9E75"/>
<path d="M71.8326 326.067C72.2814 326.024 72.6794 326.361 72.7218 326.821C72.7641 327.281 72.4347 327.688 71.9859 327.732C71.88 327.742 71.6725 327.766 71.3783 327.806C70.8832 327.874 70.3304 327.964 69.7345 328.078C68.0337 328.402 66.3341 328.855 64.755 329.454C63.8229 329.808 62.9609 330.204 62.1832 330.642C61.7882 330.864 61.292 330.717 61.0748 330.312C60.8576 329.908 61.0017 329.399 61.3966 329.177C62.249 328.696 63.1839 328.268 64.188 327.886C65.863 327.251 67.6498 326.775 69.4354 326.434C70.0598 326.315 70.6401 326.221 71.1619 326.149C71.3455 326.124 71.5091 326.103 71.6508 326.087C71.7375 326.077 71.7987 326.07 71.8326 326.067ZM132.957 305.977C133.204 305.591 133.71 305.483 134.087 305.737C134.464 305.991 134.568 306.509 134.321 306.895C134.298 306.93 134.298 306.93 134.191 307.097C134.085 307.263 133.962 307.455 133.824 307.671C133.429 308.289 132.989 308.978 132.516 309.722C131.164 311.845 129.817 313.975 128.566 315.973C128.437 316.178 128.437 316.178 128.308 316.384C126.403 319.429 126.761 318.571 125.856 320.128C125.625 320.525 125.124 320.655 124.737 320.419C124.35 320.183 124.223 319.669 124.454 319.273C125.371 317.695 125.019 318.541 126.934 315.482C127.063 315.276 127.063 315.276 127.192 315.069C128.446 313.068 129.795 310.935 131.149 308.808C131.623 308.064 132.063 307.374 132.459 306.755C132.597 306.538 132.72 306.346 132.826 306.18C132.934 306.012 132.934 306.012 132.957 305.977Z" fill="#482D1F"/>
<path d="M100.302 236.97L92.2412 234.012L100.669 243.343L100.302 236.97Z" fill="#482D1F"/>
<path d="M92.0271 211.127L91.8921 210.099C91.8921 210.099 91.5046 208.12 89.9789 206.242C89.861 206.141 88.8353 205.002 87.374 204.517C84.7413 203.746 81.4806 205.213 79.8417 207.766C78.0992 210.384 78.379 213.66 79.6221 216.066C80.8653 218.472 82.9702 219.459 83.7032 219.729L86.9493 220.467C84.6 224.997 82.5174 229.047 82.0293 229.047C81.1345 229.047 77.6377 224.804 75.3431 221.597C74.2253 220.019 70.4104 216.276 69.269 209.945C69.0274 208.468 68.3292 204.503 69.412 200.298C62.5119 195.917 57.6435 188.374 56.8816 179.452C55.5984 164.427 66.4482 151.18 81.1154 149.866C95.7825 148.551 108.713 159.666 109.996 174.692C110.419 179.645 109.524 184.405 107.608 188.607C111.421 189.504 115.483 191.5 117.725 195.362C116.642 196.153 115.333 196.808 113.839 197.222C109.777 198.257 106.183 197.74 104.003 197.153C100.225 201.519 96.3885 205.836 92.6109 210.202C92.4242 210.487 92.2292 210.796 92.0271 211.127Z" fill="#482D1F"/>
<path d="M117.611 215.088C117.716 214.408 118.324 213.85 118.984 213.902C119.422 213.919 119.776 214.223 120.005 214.986C120.334 216.914 118.483 219.542 117.787 218.43C117.292 217.747 117.479 216.107 117.611 215.088Z" fill="#482D1F"/>
<path d="M105.659 214.627C105.764 213.947 106.372 213.389 107.032 213.441C107.47 213.458 107.824 213.762 108.053 214.525C108.381 216.454 106.531 219.081 105.835 217.969C105.34 217.286 105.527 215.646 105.659 214.627Z" fill="#482D1F"/>
<path d="M113.576 215.881L114.104 221.428C114.106 221.449 114.031 221.541 114.005 221.543C113.708 221.57 113.403 221.577 112.927 221.573C112.834 221.572 112.737 221.571 112.598 221.569C112.422 221.566 112.325 221.565 112.233 221.563C111.918 221.559 111.656 221.557 111.377 221.557L111.375 221.557C111.077 221.557 110.833 221.807 110.833 222.115C110.834 222.423 111.077 222.672 111.378 222.672L111.38 222.672C111.651 222.672 111.908 222.674 112.219 222.678C112.311 222.679 112.406 222.681 112.582 222.683C112.723 222.685 112.822 222.686 112.917 222.687C113.426 222.692 113.761 222.684 114.1 222.654C114.724 222.598 115.242 221.965 115.188 221.325L114.659 215.772C114.63 215.466 114.363 215.242 114.064 215.272C113.765 215.302 113.547 215.574 113.576 215.881Z" fill="#482D1F"/>
<path d="M110.607 225.876C110.213 225.744 109.254 225.382 109.152 224.832C109.143 224.721 109.075 224.559 109.178 224.494C109.425 224.192 110.1 224.411 111.099 224.601C112.871 224.89 114.29 224.875 114.29 224.875C114.29 224.875 113.824 225.812 113.517 226.063C112.924 226.788 111.173 226.105 110.607 225.876Z" fill="#482D1F"/>
<path d="M97.1992 213.277L93.9378 212.564C93.497 212.468 93.216 212.024 93.3101 211.572C93.4041 211.12 93.8377 210.832 94.2785 210.929L97.7853 211.696C98.9535 209.341 101.246 207.638 104.003 207.391C108.254 207.01 112.001 210.231 112.373 214.585C112.382 214.689 112.389 214.793 112.394 214.896L114.049 214.956C114.485 211.326 117.346 208.377 121.044 208.046C125.295 207.665 129.042 210.886 129.414 215.24C129.786 219.594 126.641 223.433 122.391 223.814C118.143 224.195 114.398 220.978 114.022 216.628L112.301 216.566C111.741 220.049 108.94 222.838 105.35 223.159C101.1 223.54 97.3525 220.319 96.9806 215.965C96.9013 215.036 96.982 214.131 97.1992 213.277ZM98.9487 213.142C98.6534 213.972 98.5264 214.881 98.6066 215.819C98.8999 219.254 101.855 221.794 105.208 221.494C108.56 221.193 111.04 218.165 110.747 214.731C110.454 211.297 107.498 208.756 104.146 209.057C101.844 209.263 99.9534 210.755 99.0894 212.781C99.0869 212.799 99.0838 212.816 99.0802 212.834C99.0564 212.948 99.0107 213.052 98.9487 213.142ZM115.624 215.999C115.626 216.156 115.634 216.315 115.647 216.474C115.941 219.908 118.896 222.449 122.249 222.148C125.601 221.848 128.081 218.82 127.788 215.386C127.494 211.951 124.539 209.411 121.186 209.711C118.1 209.988 115.753 212.576 115.629 215.665C115.64 215.724 115.645 215.786 115.642 215.849C115.641 215.901 115.634 215.951 115.624 215.999Z" fill="#482D1F"/>
<path opacity="0.2" d="M125.18 296.833L121.609 337.978C126.671 340.108 130.456 341.777 132.965 342.987C135.473 344.197 139.139 346.093 143.961 348.674C151.557 331.575 157.154 318.603 160.753 309.759C164.353 300.915 167.65 292.054 170.645 283.175L194.491 257.577C192.493 255.685 190.574 255.057 188.734 255.693C186.894 256.329 183.878 258.661 179.686 262.69L152.332 277.654C151.049 278.356 149.973 279.395 149.215 280.666L133.8 306.473L132.218 295.421C131.863 295.809 131.049 296.133 129.777 296.394C128.787 296.596 127.93 296.629 127.097 296.693C126.684 296.724 126.045 296.771 125.18 296.833Z" fill="#8C2A00"/>
<path d="M477.555 351.688H41.7674C39.6641 351.688 37.959 353.434 37.959 355.589C37.959 357.744 39.6641 359.49 41.7674 359.49H477.555C479.659 359.49 481.364 357.744 481.364 355.589C481.364 353.434 479.659 351.688 477.555 351.688Z" fill="#D8DEED"/>
<path d="M54.8254 61.3086C71.3514 61.3086 84.7484 47.5842 84.7484 30.6543C84.7484 13.7244 71.3514 0 54.8254 0C38.2993 0 24.9023 13.7244 24.9023 30.6543C24.9023 47.5842 38.2993 61.3086 54.8254 61.3086Z" fill="#474BFF"/>
<path d="M65.649 23.0339L59.0279 24.1097C58.6957 23.2467 58.3961 22.648 58.1291 22.3137C57.8621 21.9794 57.4201 21.6421 56.8031 21.3017V26.5713C60.4103 27.5559 62.819 28.5952 64.0293 29.6892C65.6312 31.1601 66.4322 33.026 66.4322 35.287C66.4322 36.6119 66.1444 37.8275 65.5689 38.9337C64.9934 40.0399 64.2578 40.9637 63.3619 41.7052C62.466 42.4467 61.5138 42.9846 60.5052 43.3189C59.4966 43.6532 58.2626 43.8507 56.8031 43.9115V47.3576H54.2045V43.9115C52.4602 43.7534 51.0452 43.4647 49.9595 43.0454C48.8738 42.626 47.9364 42.0456 47.1473 41.3041C46.3582 40.5625 45.7501 39.7633 45.3229 38.9063C44.8958 38.0493 44.5754 37.0131 44.3618 35.7975L51.5525 34.9405C51.7661 36.1439 52.0538 37.0131 52.4157 37.5479C52.7776 38.0828 53.3739 38.5569 54.2045 38.9701V32.5337C51.8076 31.8529 50.1078 31.2634 49.1052 30.765C48.1025 30.2666 47.2333 29.4674 46.4977 28.3673C45.762 27.2672 45.3941 25.927 45.3941 24.3468C45.3941 22.183 46.1328 20.3749 47.6101 18.9223C49.0874 17.4696 51.2855 16.6643 54.2045 16.5063V14.7012H56.8031V16.5063C59.461 16.6765 61.493 17.3207 62.8991 18.4391C64.3052 19.5574 65.2219 21.089 65.649 23.0339ZM54.2045 21.2106C53.4451 21.4659 52.917 21.7819 52.6204 22.1587C52.3238 22.5356 52.1754 22.9792 52.1754 23.4898C52.1754 24.0246 52.3267 24.4896 52.6293 24.8847C52.9319 25.2797 53.4569 25.611 54.2045 25.8784V21.2106ZM56.8031 39.1525C57.8117 38.9215 58.5503 38.5417 59.019 38.0129C59.4877 37.4841 59.7221 36.8915 59.7221 36.2351C59.7221 35.6638 59.5233 35.138 59.1258 34.6579C58.7283 34.1777 57.9541 33.731 56.8031 33.3177V39.1525Z" fill="#F2F6FB"/>
<path d="M247.026 343.888L252.258 322.262H212.983C208.902 322.262 205.528 319.085 205.528 315.239V253.987C205.475 250.085 208.793 246.908 212.928 246.908H332.457C336.538 246.908 339.911 250.085 339.911 253.931V315.239C339.911 319.085 336.538 322.262 332.457 322.262H284.594L282.434 343.888H296.605C298.781 343.888 300.467 345.672 300.467 347.846C300.467 350.075 298.726 351.803 296.605 351.803H235.942C233.766 351.803 232.08 350.019 232.08 347.846C231.971 345.672 233.766 343.888 235.942 343.888H247.026Z" fill="#474961"/>
<path fill-rule="evenodd" clip-rule="evenodd" d="M286.215 306.5L286.377 343.945H282.476L286.215 306.5Z" fill="white"/>
</svg>
